# xmcd
#
# Track frame offsets:
#	150
#	8440
#	33395
#	56107
#	60417
#	78352
#	99240
#	112907
#	127460
#	129977
#	147705
#	164075
#	181432
#	202042
#	210527
#	229782
#	248402
#	266100
#	279565
#	298457
#	302320
#	317627
#	339267
#
# Disc length: 4751 seconds
#
# Revision: 4242145715
# Processed by: cddbd v1.5.2PL0 Copyright (c) Steve Scherf et al.
# Submitted via: EZCDAudioConverter 8.3.2.1
#
DISCID=53128d17
DTITLE=Various Artist - 走れ! 歌謡曲 プラチナ編 UICZ-4008 2CD1 DE-Magnetic (EZ-WAV)
DYEAR=2002
DGENRE=World Pop
TTITLE0=水井久美 - ナレーション
TTITLE1=松田聖子 - あなたに逢いたくて ～Missing You～
TTITLE2=中森明菜 - セカンド・ラブ
TTITLE3=水井久美 - ナレーション
TTITLE4=もんた and ブラザーズ - ダンシング・オールナイト
TTITLE5=欧陽菲菲 - ラブ・イズ・オーヴァー (Love Is Over)
TTITLE6=平尾昌晃 and 畑中葉子 - カナダからの手紙
TTITLE7=ロス・インディオス and シルヴィア - 別れても好きな人
TTITLE8=水井久美 - ナレーション
TTITLE9=山川豊 - 函館本線
TTITLE10=鳥羽一郎 - 兄弟船
TTITLE11=細川たかし - 矢切の渡し
TTITLE12=大川栄策 - さざんかの宿
TTITLE13=水井久美 - ナレーション
TTITLE14=寺尾聰 - ルビーの指輪
TTITLE15=KAN - 愛は勝つ
TTITLE16=日野美歌 - 氷雨
TTITLE17=チョー・ヨンピル - 釜山港へ帰れ (トラワヨプサンハンエ)
TTITLE18=テレサ・テン - 時の流れに身をまかせ
TTITLE19=水井久美 - ナレーション
TTITLE20=松村和子 - 帰ってこいよ
TTITLE21=小林旭 - 熱き心に
TTITLE22=川中美幸 - ふたり酒
EXTD=
EXTT0=
EXTT1=
EXTT2=
EXTT3=
EXTT4=
EXTT5=
EXTT6=
EXTT7=
EXTT8=
EXTT9=
EXTT10=
EXTT11=
EXTT12=
EXTT13=
EXTT14=
EXTT15=
EXTT16=
EXTT17=
EXTT18=
EXTT19=
EXTT20=
EXTT21=
EXTT22=
PLAYORDER=
